<?xml version="1.0" standalone="no"?><!DOCTYPE svg PUBLIC "-//W3C//DTD SVG 1.1//EN" "http://www.w3.org/Graphics/SVG/1.1/DTD/svg11.dtd"><svg t="1668061905096" class="icon" viewBox="0 0 1024 1024" version="1.1" xmlns="http://www.w3.org/2000/svg" p-id="2035" xmlns:xlink="http://www.w3.org/1999/xlink" width="200" height="200"><path d="M136.533604 0.00026a49.119975 49.119975 0 0 0-35.839982 15.359992C91.307627 25.600247 85.33463 38.40024 85.33463 51.200234v921.599532a49.119975 49.119975 0 0 0 15.359992 35.839982 50.545974 50.545974 0 0 0 35.839982 15.359992h750.931619a49.119975 49.119975 0 0 0 35.839981-15.359992 50.546974 50.546974 0 0 0 15.359993-35.839982V290.134113L648.532344 0.00026z" fill="#356FFE" p-id="2036"></path><path d="M938.665197 290.133113H699.732318a52.492973 52.492973 0 0 1-51.199974-51.199974V0.00026z" fill="#AEC5FE" p-id="2037"></path><path d="M651.705342 333.000091a30.951984 30.951984 0 0 1 0 61.899968 92.854953 92.854953 0 0 0-92.854952 92.854953v222.855887a154.758921 154.758921 0 1 1-98.85995-144.358927 30.950984 30.950984 0 1 1-22.347989 57.726971 92.854953 92.854953 0 1 0 59.14897 92.079953l0.155-5.447997V481.568015a28.180986 28.180986 0 0 1 0.31-3.992998A154.758921 154.758921 0 0 1 651.705342 333.000091z m92.854953 241.422877a30.951984 30.951984 0 1 1 0 61.899969H620.754358a30.951984 30.951984 0 0 1 0-61.899969h123.806937z" fill="#FFFFFF" p-id="2038"></path></svg>