<svg id="图层_1" data-name="图层 1" xmlns="http://www.w3.org/2000/svg" viewBox="0 0 36 32"><defs><style>.cls-1{fill:#eaad03;}.cls-2{fill:#f2c406;}</style></defs><title>文件分享 40X40px</title><path class="cls-1" d="M34.51,7.22,20.1,7.16,16.28,4.32H5a3,3,0,0,0-3,3V33.28a3,3,0,0,0,3,3H35a3,3,0,0,0,3-3v-22A4.12,4.12,0,0,0,34.51,7.22Z" transform="translate(-2 -4.32)"/><rect class="cls-2" y="6" width="36" height="26" rx="3.04"/><ellipse class="cls-1" cx="15.13" cy="15.98" rx="3" ry="3.07"/><path class="cls-1" d="M17.13,24.27a5.25,5.25,0,0,0-5.25,5.25h10.5A5.25,5.25,0,0,0,17.13,24.27Z" transform="translate(-2 -4.32)"/><path class="cls-1" d="M23.57,25a4.44,4.44,0,0,0-2.37.68,5.23,5.23,0,0,1,1.73,3.87h5.19A4.55,4.55,0,0,0,23.57,25Z" transform="translate(-2 -4.32)"/><ellipse class="cls-1" cx="21.55" cy="17.57" rx="2.35" ry="2.5"/></svg>