<?xml version="1.0" standalone="no"?><!DOCTYPE svg PUBLIC "-//W3C//DTD SVG 1.1//EN" "http://www.w3.org/Graphics/SVG/1.1/DTD/svg11.dtd"><svg t="1664421314022" class="icon" viewBox="0 0 1024 1024" version="1.1" xmlns="http://www.w3.org/2000/svg" p-id="2552" xmlns:xlink="http://www.w3.org/1999/xlink" width="200" height="200"><path d="M880 112H144c-17.673 0-32 14.327-32 32v736c0 17.673 14.327 32 32 32h736c17.673 0 32-14.327 32-32V144c0-17.673-14.327-32-32-32z m-40 728H184V184h656v656z" p-id="2553"></path><path d="M704 704h64v64h-64zM256 704h64v64h-64zM256 256h64v64h-64zM704 256h64v64h-64zM704 368h64v64h-64zM704 480h64v64h-64zM704 592h64v64h-64zM256 368h64v64h-64zM256 480h64v64h-64zM256 592h64v64h-64zM592 704h64v64h-64zM480 704h64v64h-64zM368 704h64v64h-64zM592 256h64v64h-64zM480 256h64v64h-64zM368 256h64v64h-64z" p-id="2554"></path></svg>