<?xml version="1.0" standalone="no"?><!DOCTYPE svg PUBLIC "-//W3C//DTD SVG 1.1//EN" "http://www.w3.org/Graphics/SVG/1.1/DTD/svg11.dtd"><svg t="1664427565673" class="icon" viewBox="0 0 1024 1024" version="1.1" xmlns="http://www.w3.org/2000/svg" p-id="61130" xmlns:xlink="http://www.w3.org/1999/xlink" width="200" height="200"><path d="M763.448889 287.857778l46.933333-54.613334a14.222222 14.222222 0 0 0-10.808889-23.324444h-93.297777a14.222222 14.222222 0 0 0-10.808889 23.324444l46.648889 54.613334a14.222222 14.222222 0 0 0 21.333333 0z" p-id="61131"></path><path d="M210.204444 280.177778m0-28.444445l0 0q0-28.444444 28.444445-28.444444l369.777778 0q28.444444 0 28.444444 28.444444l0 0q0 28.444444-28.444444 28.444445l-369.777778 0q-28.444444 0-28.444445-28.444445Z" p-id="61132"></path><path d="M298.666667 514.56m0-13.653333l0 0q0-13.653333 13.653333-13.653334l399.36 0q13.653333 0 13.653333 13.653334l0 0q0 13.653333-13.653333 13.653333l-399.36 0q-13.653333 0-13.653333-13.653333Z" p-id="61133"></path><path d="M298.666667 599.893333m0-13.653333l0 0q0-13.653333 13.653333-13.653333l351.857778 0q13.653333 0 13.653333 13.653333l0 0q0 13.653333-13.653333 13.653333l-351.857778 0q-13.653333 0-13.653333-13.653333Z" p-id="61134"></path><path d="M298.666667 685.511111m0-13.653333l0 0q0-13.653333 13.653333-13.653334l162.417778 0q13.653333 0 13.653333 13.653334l0 0q0 13.653333-13.653333 13.653333l-162.417778 0q-13.653333 0-13.653333-13.653333Z" p-id="61135"></path><path d="M768 358.684444H256a56.888889 56.888889 0 0 0-56.888889 56.888889v341.333334a56.888889 56.888889 0 0 0 56.888889 56.888889h512a56.888889 56.888889 0 0 0 56.888889-56.888889v-341.333334a56.888889 56.888889 0 0 0-56.888889-56.888889z m0 369.777778a28.444444 28.444444 0 0 1-28.444444 28.444445H284.444444a28.444444 28.444444 0 0 1-28.444444-28.444445v-284.444444a28.444444 28.444444 0 0 1 28.444444-28.444445h455.111112a28.444444 28.444444 0 0 1 28.444444 28.444445z" p-id="61136"></path></svg>