<?xml version="1.0" encoding="UTF-8"?>
<svg width="200px" height="200px" viewBox="0 0 200 200" version="1.1" xmlns="http://www.w3.org/2000/svg" xmlns:xlink="http://www.w3.org/1999/xlink">
    <defs>
        <linearGradient x1="0.458063377%" y1="0.455862088%" x2="96.3792138%" y2="96.3361047%" id="linearGradient-1">
            <stop stop-color="#D0D6E2" offset="0%"></stop>
            <stop stop-color="#A8B3C9" offset="100%"></stop>
        </linearGradient>
    </defs>
    <g id="图片组件默认图" stroke="none" stroke-width="1" fill="none" fill-rule="evenodd">
        <g id="编组-5">
            <rect id="矩形" fill="url(#linearGradient-1)" x="0" y="0" width="200" height="200" rx="4"></rect>
            <g id="图片" transform="translate(78.000000, 80.000000)" fill="#FFFFFF">
                <path d="M41,0 C42.6568542,-3.04359188e-16 44,1.34314575 44,3 L44,37 C44,38.6568542 42.6568542,40 41,40 L3,40 C1.34314575,40 2.02906125e-16,38.6568542 0,37 L0,3 C-2.02906125e-16,1.34314575 1.34314575,7.48448398e-16 3,0 L41,0 Z M29.2211658,18.9419678 C28.7818214,18.6073114 28.1543697,18.6921778 27.8197133,19.1315222 L27.8197133,19.1315222 L20.8826792,28.2386156 C20.8350883,28.301094 20.7803026,28.3577483 20.7194549,28.4074072 C20.2915775,28.7566053 19.6616332,28.6928232 19.3124351,28.2649457 L19.3124351,28.2649457 L14.839293,22.783941 C14.7864602,22.7192043 14.7257218,22.6613447 14.658498,22.611715 C14.2141821,22.2836879 13.5880743,22.3779586 13.2600472,22.8222745 L13.2600472,22.8222745 L6.67676952,31.7393877 C6.54979034,31.9113822 6.48127467,32.1195441 6.48127467,32.3333333 C6.48127467,32.8856181 6.92898992,33.3333333 7.48127467,33.3333333 L7.48127467,33.3333333 L37.6518395,33.3333333 C37.860972,33.3333333 38.0648418,33.2677666 38.234767,33.1458575 C38.6835117,32.8239155 38.7863056,32.1991505 38.4643637,31.7504058 L38.4643637,31.7504058 L29.4277409,19.1545438 C29.369825,19.0738166 29.300202,19.002171 29.2211658,18.9419678 Z M11,5.55555556 C8.56992628,5.55555556 6.6,7.54538014 6.6,10 C6.6,12.4546199 8.56992633,14.4444444 11,14.4444444 C13.4300737,14.4444444 15.4,12.4546199 15.4,10 C15.4,7.54538014 13.4300737,5.55555556 11,5.55555556 Z" id="形状结合"></path>
            </g>
        </g>
    </g>
</svg>