<?xml version="1.0" standalone="no"?><!DOCTYPE svg PUBLIC "-//W3C//DTD SVG 1.1//EN" "http://www.w3.org/Graphics/SVG/1.1/DTD/svg11.dtd"><svg t="1664426831201" class="icon" viewBox="0 0 1024 1024" version="1.1" xmlns="http://www.w3.org/2000/svg" p-id="54204" xmlns:xlink="http://www.w3.org/1999/xlink" width="200" height="200"><path d="M369.066667 170.666667h283.733333c61.866667 0 110.933333 17.066667 145.066667 53.333333 36.266667 36.266667 53.333333 83.2 53.333333 145.066667v283.733333c0 61.866667-17.066667 110.933333-53.333333 147.2-36.266667 34.133333-83.2 53.333333-145.066667 53.333333h-283.733333c-61.866667 0-110.933333-17.066667-147.2-53.333333-34.133333-34.133333-53.333333-83.2-53.333334-147.2v-283.733333c0-61.866667 17.066667-110.933333 53.333334-147.2 36.266667-34.133333 85.333333-51.2 147.2-51.2z m313.6 113.066666h-341.333334a58.282667 58.282667 0 0 0-57.6 57.6v341.333334a58.282667 58.282667 0 0 0 57.6 57.6h341.333334a58.282667 58.282667 0 0 0 57.6-57.6v-341.333334a58.282667 58.282667 0 0 0-57.6-57.6z m-313.6 57.6h283.733333c8.533333 0 14.933333 2.133333 19.2 8.533334 6.4 6.4 8.533333 12.8 8.533333 19.2v170.666666c0 8.533333-2.133333 14.933333-8.533333 19.2-6.4 6.4-12.8 8.533333-19.2 8.533334h-283.733333c-8.533333 0-14.933333-2.133333-19.2-8.533334-6.4-6.4-8.533333-12.8-8.533334-19.2v-170.666666c0-8.533333 2.133333-14.933333 8.533334-19.2 4.266667-6.4 12.8-8.533333 19.2-8.533334z m29.866666 57.6v113.066667h228.266667v-113.066667h-228.266667z" p-id="54205"></path></svg>