<?xml version="1.0" standalone="no"?><!DOCTYPE svg PUBLIC "-//W3C//DTD SVG 1.1//EN" "http://www.w3.org/Graphics/SVG/1.1/DTD/svg11.dtd"><svg t="1664422126401" class="icon" viewBox="0 0 1024 1024" version="1.1" xmlns="http://www.w3.org/2000/svg" p-id="22055" xmlns:xlink="http://www.w3.org/1999/xlink" width="200" height="200"><path d="M369.066667 650.24a42.666667 42.666667 0 0 1 7.893333 55.893333l-3.242667 4.266667-128 149.418667a42.666667 42.666667 0 0 1-53.76 9.173333l-4.266666-2.816-85.333334-64.042667a42.666667 42.666667 0 0 1 46.762667-71.210666l4.48 2.986666 53.333333 39.978667 101.973334-118.997333a42.666667 42.666667 0 0 1 60.16-4.608zM896 725.333333a42.666667 42.666667 0 0 1 4.992 85.034667L896 810.666667H469.333333a42.666667 42.666667 0 0 1-4.992-85.034667L469.333333 725.333333h426.666667z m-0.512-256a42.666667 42.666667 0 0 1 4.949333 85.034667l-4.949333 0.298667h-426.666667a42.666667 42.666667 0 0 1-4.992-85.034667l4.992-0.298667h426.666667zM369.066667 138.24a42.666667 42.666667 0 0 1 7.850666 55.893333l-3.242666 4.266667-128 149.418667a42.666667 42.666667 0 0 1-53.76 9.173333l-4.266667-2.816-85.333333-64.042667A42.666667 42.666667 0 0 1 149.162667 218.88l4.48 2.986667 53.333333 39.978666 101.973333-118.997333a42.666667 42.666667 0 0 1 60.16-4.608zM896 213.333333a42.666667 42.666667 0 0 1 4.949333 85.034667L896 298.666667H469.333333a42.666667 42.666667 0 0 1-4.992-85.034667L469.333333 213.333333h426.666667z" p-id="22056"></path></svg>