<?xml version="1.0" standalone="no"?><!DOCTYPE svg PUBLIC "-//W3C//DTD SVG 1.1//EN" "http://www.w3.org/Graphics/SVG/1.1/DTD/svg11.dtd"><svg t="1664422617825" class="icon" viewBox="0 0 1024 1024" version="1.1" xmlns="http://www.w3.org/2000/svg" p-id="41580" xmlns:xlink="http://www.w3.org/1999/xlink" width="200" height="200"><path d="M122.368 165.888h778.24c-9.216 0-16.384-7.168-16.384-16.384v713.728c0-9.216 7.168-16.384 16.384-16.384h-778.24c9.216 0 16.384 7.168 16.384 16.384V150.016c0 8.192-6.656 15.872-16.384 15.872z m-32.768 684.544c0 26.112 20.992 47.104 47.104 47.104h750.08c26.112 0 47.104-20.992 47.104-47.104V162.304c0-26.112-20.992-47.104-47.104-47.104H136.704c-26.112 0-47.104 20.992-47.104 47.104v688.128z" p-id="41581"></path><path d="M215.04 369.152c0 58.368 47.104 105.472 105.472 105.472h26.112v-26.112h-26.112c-43.52 1.024-79.872-33.792-80.384-77.312S273.408 290.816 317.44 290.304H346.624v-26.112h-26.112C262.144 263.68 215.04 310.784 215.04 369.152zM690.176 277.504h76.288v375.296h-76.288zM369.152 240.64h205.312v72.192H369.152zM369.152 422.4h205.312v72.192H369.152zM215.04 646.656c0 58.368 47.104 105.472 105.472 105.472h26.112v-26.112h-26.112c-43.52 1.024-79.872-33.792-80.384-77.312S273.408 568.32 317.44 567.296H346.624v-26.112h-26.112c-58.368 0-105.472 47.104-105.472 105.472zM369.152 518.144h205.312v72.192H369.152zM369.152 699.904h205.312v72.192H369.152z" p-id="41582"></path><path d="M849.92 617.984l-126.464 140.8-126.464-140.8z" p-id="41583"></path></svg>