<?xml version="1.0" standalone="no"?><!DOCTYPE svg PUBLIC "-//W3C//DTD SVG 1.1//EN" "http://www.w3.org/Graphics/SVG/1.1/DTD/svg11.dtd"><svg t="1664426254633" class="icon" viewBox="0 0 1024 1024" version="1.1" xmlns="http://www.w3.org/2000/svg" p-id="47782" xmlns:xlink="http://www.w3.org/1999/xlink" width="200" height="200"><path d="M192 560h640v32H192v-32z m448-288h192v32h-192v-32z m0 96h192v32h-192v-32z m0 96h192v32h-192v-32z m-448 192h640v32H192v-32z m0 96h640v32H192v-32z m672-736H160a96 96 0 0 0-96 96v768a96 96 0 0 0 96 96h704a96 96 0 0 0 96-96v-768a96 96 0 0 0-96-96z m64 864a64 64 0 0 1-64 64H160a64 64 0 0 1-64-64v-768a64 64 0 0 1 64-64h704a64 64 0 0 1 64 64v768z m-352-672H192v288h384v-288z m-32 256H224v-224h320v224z" p-id="47783"></path></svg>