<?xml version="1.0" standalone="no"?><!DOCTYPE svg PUBLIC "-//W3C//DTD SVG 1.1//EN" "http://www.w3.org/Graphics/SVG/1.1/DTD/svg11.dtd"><svg t="1664428400158" class="icon" viewBox="0 0 1280 1024" version="1.1" xmlns="http://www.w3.org/2000/svg" p-id="62062" xmlns:xlink="http://www.w3.org/1999/xlink" width="250" height="200"><path d="M1246.4 384c-103.6 7-251.4 109.4-326.2 143-58.2 26.2-108.4 48.8-152.2 48.8-45.2 0-52-32.4-42.6-103.8 2.2-16 23.4-158.4-85.4-152.2-50.2 3-128.6 49.6-339 252L384 364.4c60.8-151.8-106.4-303-259.4-205.6L14.8 232.6C0 242-4.4 261.8 5 276.8l34.4 54c9.4 15 29.2 19.4 44.2 9.8l116-77.8c36.8-23.4 81.4 14.4 65.4 54.2L68.6 808.2C55 842 74 896 128 896c16.6 0 33-6.4 45.2-18.8 84.4-84.4 309.4-301.4 422.4-391.6-4.4 57-4.2 117.8 41.2 167.6 30.6 33.6 74.6 50.6 131 50.6 71.2 0 136-29.2 204.6-60 66-29.6 198-125.2 276.8-131.6 17-1.4 30.4-14.6 30.4-31.6v-64.2c0.4-18.2-15-33.6-33.2-32.4z" p-id="62063"></path></svg>