<?xml version="1.0" standalone="no"?><!DOCTYPE svg PUBLIC "-//W3C//DTD SVG 1.1//EN" "http://www.w3.org/Graphics/SVG/1.1/DTD/svg11.dtd"><svg t="1664426597761" class="icon" viewBox="0 0 1024 1024" version="1.1" xmlns="http://www.w3.org/2000/svg" p-id="52631" xmlns:xlink="http://www.w3.org/1999/xlink" width="200" height="200"><path d="M913.988 173.68H110.05c-25.671 0-46.676 21.007-46.676 46.679v665.897c0 25.651 20.987 46.638 46.637 46.638H913.95c25.671 0 46.676-21.004 46.676-46.676V220.32c0-25.651-20.988-46.64-46.638-46.64zM339.796 896.142c0 12.016-9.34 21.353-21.305 21.353H104.864c-11.965 0-21.303-9.337-21.303-21.353V768.023c0-12.014 9.338-21.353 21.303-21.353h213.627c11.965 0 21.305 9.34 21.305 21.353v128.118z m0-224.995c0 12.015-9.34 21.353-21.305 21.353H104.864c-11.965 0-21.303-9.338-21.303-21.353V543.029c0-12.013 9.338-21.354 21.303-21.354h213.627c11.965 0 21.305 9.34 21.305 21.354v128.117z m0-223.432c0 12.016-9.34 21.353-21.305 21.353H104.864c-11.965 0-21.303-9.337-21.303-21.353V319.596c0-12.013 9.338-21.353 21.303-21.353h213.627c11.965 0 21.305 9.34 21.305 21.353v128.118zM639.269 896.14c0 12.016-9.34 21.353-21.306 21.353H404.337c-11.966 0-21.305-9.337-21.305-21.353V768.023c0-12.014 9.34-21.353 21.305-21.353h213.626c11.966 0 21.306 9.34 21.306 21.353v128.118z m0-224.995c0 12.015-9.34 21.353-21.306 21.353H404.337c-11.966 0-21.305-9.338-21.305-21.353V543.029c0-12.013 9.34-21.354 21.305-21.354h213.626c11.966 0 21.306 9.34 21.306 21.354v128.117z m0-223.432c0 12.016-9.34 21.353-21.306 21.353H404.337c-11.966 0-21.305-9.337-21.305-21.353V319.596c0-12.013 9.34-21.353 21.305-21.353h213.626c11.966 0 21.306 9.34 21.306 21.353v128.118zM941.864 896.14c0 12.016-9.34 21.353-21.304 21.353H706.933c-11.966 0-21.304-9.337-21.304-21.353V768.023c0-12.014 9.338-21.353 21.304-21.353h213.626c11.966 0 21.304 9.34 21.304 21.353v128.118z m0-224.995c0 12.015-9.34 21.353-21.304 21.353H706.933c-11.966 0-21.304-9.338-21.304-21.353V543.029c0-12.013 9.338-21.354 21.304-21.354h213.626c11.966 0 21.304 9.34 21.304 21.354v128.117z m0-223.432c0 12.016-9.34 21.353-21.304 21.353H706.933c-11.966 0-21.304-9.337-21.304-21.353V319.596c0-12.013 9.338-21.353 21.304-21.353h213.626c11.966 0 21.304 9.34 21.304 21.353v128.118z" fill="" p-id="52632"></path></svg>